<svg width="369" height="180" viewBox="0 0 369 180" fill="none" xmlns="http://www.w3.org/2000/svg">
<rect width="369" height="176" rx="8" fill="#2E2E2E"/>
<rect x="16" y="92" width="5" height="16" rx="2.5" fill="#FF365E"/>
<rect x="24.8611" y="86" width="6" height="28" rx="3" fill="#FF365E"/>
<rect x="34.7222" y="81" width="6" height="38" rx="3" fill="#FF365E"/>
<rect x="44.5833" y="84" width="5" height="32" rx="2.5" fill="#FF365E"/>
<rect x="53.4443" y="78.5" width="5" height="43" rx="2.5" fill="#AC71F4"/>
<rect x="62.3054" y="68.5" width="5" height="63" rx="2.5" fill="#AC71F4"/>
<rect x="71.1665" y="56" width="5" height="88" rx="2.5" fill="#AC71F4"/>
<rect x="80.0276" y="70.5" width="6" height="59" rx="3" fill="#AC71F4"/>
<rect x="89.8887" y="80" width="6" height="40" rx="3" fill="#AC71F4"/>
<rect x="99.7499" y="66.5" width="5" height="67" rx="2.5" fill="#AC71F4"/>
<rect x="108.611" y="62" width="5" height="76" rx="2.5" fill="#04BE8C"/>
<rect x="117.472" y="66" width="5" height="68" rx="2.5" fill="#04BE8C"/>
<rect x="126.333" y="51" width="6" height="98" rx="3" fill="#04BE8C"/>
<rect x="136.194" y="62" width="6" height="76" rx="3" fill="#04BE8C"/>
<rect x="146.056" y="73" width="5" height="54" rx="2.5" fill="#04BE8C"/>
<rect x="154.917" y="78" width="5" height="44" rx="2.5" fill="#AC71F4"/>
<rect x="163.778" y="70" width="5" height="60" rx="2.5" fill="#AC71F4"/>
<rect x="172.639" y="80" width="5" height="40" rx="2.5" fill="#AC71F4"/>
<rect x="181.5" y="71" width="6" height="58" rx="3" fill="#AC71F4"/>
<rect x="191.361" y="59.5" width="5" height="81" rx="2.5" fill="#AC71F4"/>
<rect x="200.222" y="64" width="5" height="72" rx="2.5" fill="#AC71F4"/>
<rect x="209.083" y="74" width="5" height="52" rx="2.5" fill="#AC71F4"/>
<rect x="217.944" y="62" width="5" height="76" rx="2.5" fill="#04BE8C"/>
<rect x="226.806" y="66" width="6" height="68" rx="3" fill="#04BE8C"/>
<rect x="236.667" y="51" width="6" height="98" rx="3" fill="#04BE8C"/>
<rect x="246.528" y="62" width="5" height="76" rx="2.5" fill="#04BE8C"/>
<rect x="255.389" y="73" width="5" height="54" rx="2.5" fill="#04BE8C"/>
<rect x="264.25" y="82" width="5" height="36" rx="2.5" fill="#E9B327"/>
<rect x="273.111" y="77" width="6" height="46" rx="3" fill="#E9B327"/>
<rect x="282.972" y="83" width="6" height="34" rx="3" fill="#E9B327"/>
<rect x="292.833" y="77" width="5" height="46" rx="2.5" fill="#E9B327"/>
<rect x="301.694" y="72" width="5" height="56" rx="2.5" fill="#E9B327"/>
<rect x="310.556" y="62" width="5" height="76" rx="2.5" fill="#04BE8C"/>
<rect x="319.417" y="66" width="5" height="68" rx="2.5" fill="#04BE8C"/>
<rect x="328.278" y="51" width="6" height="98" rx="3" fill="#04BE8C"/>
<rect x="338.139" y="62" width="6" height="76" rx="3" fill="#04BE8C"/>
<rect x="348" y="73" width="5" height="54" rx="2.5" fill="#04BE8C"/>
<path d="M53 153V153C53 156.866 56.134 160 60 160H98C101.866 160 105 156.866 105 153V153" stroke="white" stroke-width="2" stroke-linecap="round"/>
<path d="M155 153V153C155 156.866 158.134 160 162 160H207C210.866 160 214 156.866 214 153V153" stroke="white" stroke-width="2" stroke-linecap="round"/>
<path d="M264 153V153C264 156.866 267.134 160 271 160H300C303.866 160 307 156.866 307 153V153" stroke="white" stroke-width="2" stroke-linecap="round"/>
<path d="M151 47V47C151 43.134 147.866 40 144 40L116 40C112.134 40 109 43.134 109 47V47" stroke="white" stroke-width="2" stroke-linecap="round"/>
<path d="M260 47V47C260 43.134 256.866 40 253 40L225 40C221.134 40 218 43.134 218 47V47" stroke="white" stroke-width="2" stroke-linecap="round"/>
<path d="M353 47V47C353 43.134 349.866 40 346 40L318 40C314.134 40 311 43.134 311 47V47" stroke="white" stroke-width="2" stroke-linecap="round"/>
<path d="M125.47 37V27.2H129.866C130.995 27.2 131.863 27.4287 132.47 27.886C133.077 28.334 133.38 28.95 133.38 29.734C133.38 30.266 133.259 30.714 133.016 31.078C132.783 31.442 132.465 31.722 132.064 31.918C131.663 32.114 131.229 32.212 130.762 32.212L131.014 31.792C131.574 31.792 132.069 31.89 132.498 32.086C132.927 32.282 133.268 32.5713 133.52 32.954C133.772 33.3273 133.898 33.794 133.898 34.354C133.898 35.194 133.581 35.8473 132.946 36.314C132.321 36.7713 131.387 37 130.146 37H125.47ZM126.87 35.866H130.09C130.865 35.866 131.457 35.7353 131.868 35.474C132.279 35.2127 132.484 34.802 132.484 34.242C132.484 33.6727 132.279 33.2573 131.868 32.996C131.457 32.7347 130.865 32.604 130.09 32.604H126.744V31.47H129.74C130.449 31.47 131 31.3393 131.392 31.078C131.784 30.8167 131.98 30.4247 131.98 29.902C131.98 29.3793 131.784 28.9873 131.392 28.726C131 28.4647 130.449 28.334 129.74 28.334H126.87V35.866Z" fill="#04BE8C"/>
<path d="M235.47 37V27.2H239.866C240.995 27.2 241.863 27.4287 242.47 27.886C243.077 28.334 243.38 28.95 243.38 29.734C243.38 30.266 243.259 30.714 243.016 31.078C242.783 31.442 242.465 31.722 242.064 31.918C241.663 32.114 241.229 32.212 240.762 32.212L241.014 31.792C241.574 31.792 242.069 31.89 242.498 32.086C242.927 32.282 243.268 32.5713 243.52 32.954C243.772 33.3273 243.898 33.794 243.898 34.354C243.898 35.194 243.581 35.8473 242.946 36.314C242.321 36.7713 241.387 37 240.146 37H235.47ZM236.87 35.866H240.09C240.865 35.866 241.457 35.7353 241.868 35.474C242.279 35.2127 242.484 34.802 242.484 34.242C242.484 33.6727 242.279 33.2573 241.868 32.996C241.457 32.7347 240.865 32.604 240.09 32.604H236.744V31.47H239.74C240.449 31.47 241 31.3393 241.392 31.078C241.784 30.8167 241.98 30.4247 241.98 29.902C241.98 29.3793 241.784 28.9873 241.392 28.726C241 28.4647 240.449 28.334 239.74 28.334H236.87V35.866Z" fill="#04BE8C"/>
<path d="M327.47 37V27.2H331.866C332.995 27.2 333.863 27.4287 334.47 27.886C335.077 28.334 335.38 28.95 335.38 29.734C335.38 30.266 335.259 30.714 335.016 31.078C334.783 31.442 334.465 31.722 334.064 31.918C333.663 32.114 333.229 32.212 332.762 32.212L333.014 31.792C333.574 31.792 334.069 31.89 334.498 32.086C334.927 32.282 335.268 32.5713 335.52 32.954C335.772 33.3273 335.898 33.794 335.898 34.354C335.898 35.194 335.581 35.8473 334.946 36.314C334.321 36.7713 333.387 37 332.146 37H327.47ZM328.87 35.866H332.09C332.865 35.866 333.457 35.7353 333.868 35.474C334.279 35.2127 334.484 34.802 334.484 34.242C334.484 33.6727 334.279 33.2573 333.868 32.996C333.457 32.7347 332.865 32.604 332.09 32.604H328.744V31.47H331.74C332.449 31.47 333 31.3393 333.392 31.078C333.784 30.8167 333.98 30.4247 333.98 29.902C333.98 29.3793 333.784 28.9873 333.392 28.726C333 28.4647 332.449 28.334 331.74 28.334H328.87V35.866Z" fill="#04BE8C"/>
<path d="M286.852 174.112C286.105 174.112 285.415 173.991 284.78 173.748C284.155 173.496 283.609 173.146 283.142 172.698C282.685 172.241 282.325 171.709 282.064 171.102C281.803 170.495 281.672 169.828 281.672 169.1C281.672 168.372 281.803 167.705 282.064 167.098C282.325 166.491 282.689 165.964 283.156 165.516C283.623 165.059 284.169 164.709 284.794 164.466C285.429 164.214 286.119 164.088 286.866 164.088C287.622 164.088 288.317 164.219 288.952 164.48C289.596 164.732 290.142 165.11 290.59 165.614L289.68 166.496C289.307 166.104 288.887 165.815 288.42 165.628C287.953 165.432 287.454 165.334 286.922 165.334C286.371 165.334 285.858 165.427 285.382 165.614C284.915 165.801 284.509 166.062 284.164 166.398C283.819 166.734 283.548 167.135 283.352 167.602C283.165 168.059 283.072 168.559 283.072 169.1C283.072 169.641 283.165 170.145 283.352 170.612C283.548 171.069 283.819 171.466 284.164 171.802C284.509 172.138 284.915 172.399 285.382 172.586C285.858 172.773 286.371 172.866 286.922 172.866C287.454 172.866 287.953 172.773 288.42 172.586C288.887 172.39 289.307 172.091 289.68 171.69L290.59 172.572C290.142 173.076 289.596 173.459 288.952 173.72C288.317 173.981 287.617 174.112 286.852 174.112Z" fill="#E9B327"/>
<path d="M179.986 174L184.424 164.2H185.81L190.262 174H188.792L184.83 164.984H185.39L181.428 174H179.986ZM181.876 171.55L182.254 170.43H187.77L188.176 171.55H181.876Z" fill="#AC71F4"/>
<path d="M73.986 174L78.424 164.2H79.81L84.262 174H82.792L78.83 164.984H79.39L75.428 174H73.986ZM75.876 171.55L76.254 170.43H81.77L82.176 171.55H75.876Z" fill="#AC71F4"/>
</svg>
