<svg width="338" height="148" viewBox="0 0 338 148" fill="none" xmlns="http://www.w3.org/2000/svg">
<rect y="65" width="5" height="16" rx="2.5" fill="#FF365E"/>
<rect x="8.86108" y="59" width="6" height="28" rx="3" fill="#FF365E"/>
<rect x="18.7222" y="54" width="6" height="38" rx="3" fill="#FF365E"/>
<rect x="28.5833" y="57" width="5" height="32" rx="2.5" fill="#FF365E"/>
<rect x="37.4443" y="51.5" width="5" height="43" rx="2.5" fill="#AC71F4"/>
<rect x="46.3054" y="41.5" width="5" height="63" rx="2.5" fill="#AC71F4"/>
<rect x="55.1665" y="29" width="5" height="88" rx="2.5" fill="#AC71F4"/>
<rect x="64.0276" y="43.5" width="6" height="59" rx="3" fill="#AC71F4"/>
<rect x="73.8887" y="53" width="6" height="40" rx="3" fill="#AC71F4"/>
<rect x="83.7499" y="39.5" width="5" height="67" rx="2.5" fill="#AC71F4"/>
<rect x="92.6111" y="35" width="5" height="76" rx="2.5" fill="#04BE8C"/>
<rect x="101.472" y="39" width="5" height="68" rx="2.5" fill="#04BE8C"/>
<rect x="110.333" y="24" width="6" height="98" rx="3" fill="#04BE8C"/>
<rect x="120.194" y="35" width="6" height="76" rx="3" fill="#04BE8C"/>
<rect x="130.056" y="46" width="5" height="54" rx="2.5" fill="#04BE8C"/>
<rect x="138.917" y="51" width="5" height="44" rx="2.5" fill="#AC71F4"/>
<rect x="147.778" y="43" width="5" height="60" rx="2.5" fill="#AC71F4"/>
<rect x="156.639" y="53" width="5" height="40" rx="2.5" fill="#AC71F4"/>
<rect x="165.5" y="44" width="6" height="58" rx="3" fill="#AC71F4"/>
<rect x="175.361" y="32.5" width="5" height="81" rx="2.5" fill="#AC71F4"/>
<rect x="184.222" y="37" width="5" height="72" rx="2.5" fill="#AC71F4"/>
<rect x="193.083" y="47" width="5" height="52" rx="2.5" fill="#AC71F4"/>
<rect x="201.944" y="35" width="5" height="76" rx="2.5" fill="#04BE8C"/>
<rect x="210.806" y="39" width="6" height="68" rx="3" fill="#04BE8C"/>
<rect x="220.667" y="24" width="6" height="98" rx="3" fill="#04BE8C"/>
<rect x="230.528" y="35" width="5" height="76" rx="2.5" fill="#04BE8C"/>
<rect x="239.389" y="46" width="5" height="54" rx="2.5" fill="#04BE8C"/>
<rect x="248.25" y="55" width="5" height="36" rx="2.5" fill="#E9B327"/>
<rect x="257.111" y="50" width="6" height="46" rx="3" fill="#E9B327"/>
<rect x="266.972" y="56" width="6" height="34" rx="3" fill="#E9B327"/>
<rect x="276.833" y="50" width="5" height="46" rx="2.5" fill="#E9B327"/>
<rect x="285.694" y="45" width="5" height="56" rx="2.5" fill="#E9B327"/>
<rect x="294.556" y="35" width="5" height="76" rx="2.5" fill="#04BE8C"/>
<rect x="303.417" y="39" width="5" height="68" rx="2.5" fill="#04BE8C"/>
<rect x="312.278" y="24" width="6" height="98" rx="3" fill="#04BE8C"/>
<rect x="322.139" y="35" width="6" height="76" rx="3" fill="#04BE8C"/>
<rect x="332" y="46" width="5" height="54" rx="2.5" fill="#04BE8C"/>
<path d="M37 126V126C37 129.866 40.134 133 44 133H82C85.866 133 89 129.866 89 126V126" stroke="white" stroke-width="2" stroke-linecap="round"/>
<path d="M139 126V126C139 129.866 142.134 133 146 133H191C194.866 133 198 129.866 198 126V126" stroke="white" stroke-width="2" stroke-linecap="round"/>
<path d="M248 126V126C248 129.866 251.134 133 255 133H284C287.866 133 291 129.866 291 126V126" stroke="white" stroke-width="2" stroke-linecap="round"/>
<path d="M135 20V20C135 16.134 131.866 13 128 13L100 13C96.134 13 93 16.134 93 20V20" stroke="white" stroke-width="2" stroke-linecap="round"/>
<path d="M244 20V20C244 16.134 240.866 13 237 13L209 13C205.134 13 202 16.134 202 20V20" stroke="white" stroke-width="2" stroke-linecap="round"/>
<path d="M337 20V20C337 16.134 333.866 13 330 13L302 13C298.134 13 295 16.134 295 20V20" stroke="white" stroke-width="2" stroke-linecap="round"/>
<path d="M109.47 10V0.199999H113.866C114.995 0.199999 115.863 0.428666 116.47 0.886C117.077 1.334 117.38 1.95 117.38 2.734C117.38 3.266 117.259 3.714 117.016 4.078C116.783 4.442 116.465 4.722 116.064 4.918C115.663 5.114 115.229 5.212 114.762 5.212L115.014 4.792C115.574 4.792 116.069 4.89 116.498 5.086C116.927 5.282 117.268 5.57133 117.52 5.954C117.772 6.32733 117.898 6.794 117.898 7.354C117.898 8.194 117.581 8.84733 116.946 9.314C116.321 9.77133 115.387 10 114.146 10H109.47ZM110.87 8.866H114.09C114.865 8.866 115.457 8.73533 115.868 8.474C116.279 8.21267 116.484 7.802 116.484 7.242C116.484 6.67267 116.279 6.25733 115.868 5.996C115.457 5.73467 114.865 5.604 114.09 5.604H110.744V4.47H113.74C114.449 4.47 115 4.33933 115.392 4.078C115.784 3.81667 115.98 3.42467 115.98 2.902C115.98 2.37933 115.784 1.98733 115.392 1.726C115 1.46467 114.449 1.334 113.74 1.334H110.87V8.866Z" fill="#04BE8C"/>
<path d="M219.47 10V0.199999H223.866C224.995 0.199999 225.863 0.428666 226.47 0.886C227.077 1.334 227.38 1.95 227.38 2.734C227.38 3.266 227.259 3.714 227.016 4.078C226.783 4.442 226.465 4.722 226.064 4.918C225.663 5.114 225.229 5.212 224.762 5.212L225.014 4.792C225.574 4.792 226.069 4.89 226.498 5.086C226.927 5.282 227.268 5.57133 227.52 5.954C227.772 6.32733 227.898 6.794 227.898 7.354C227.898 8.194 227.581 8.84733 226.946 9.314C226.321 9.77133 225.387 10 224.146 10H219.47ZM220.87 8.866H224.09C224.865 8.866 225.457 8.73533 225.868 8.474C226.279 8.21267 226.484 7.802 226.484 7.242C226.484 6.67267 226.279 6.25733 225.868 5.996C225.457 5.73467 224.865 5.604 224.09 5.604H220.744V4.47H223.74C224.449 4.47 225 4.33933 225.392 4.078C225.784 3.81667 225.98 3.42467 225.98 2.902C225.98 2.37933 225.784 1.98733 225.392 1.726C225 1.46467 224.449 1.334 223.74 1.334H220.87V8.866Z" fill="#04BE8C"/>
<path d="M311.47 10V0.199999H315.866C316.995 0.199999 317.863 0.428666 318.47 0.886C319.077 1.334 319.38 1.95 319.38 2.734C319.38 3.266 319.259 3.714 319.016 4.078C318.783 4.442 318.465 4.722 318.064 4.918C317.663 5.114 317.229 5.212 316.762 5.212L317.014 4.792C317.574 4.792 318.069 4.89 318.498 5.086C318.927 5.282 319.268 5.57133 319.52 5.954C319.772 6.32733 319.898 6.794 319.898 7.354C319.898 8.194 319.581 8.84733 318.946 9.314C318.321 9.77133 317.387 10 316.146 10H311.47ZM312.87 8.866H316.09C316.865 8.866 317.457 8.73533 317.868 8.474C318.279 8.21267 318.484 7.802 318.484 7.242C318.484 6.67267 318.279 6.25733 317.868 5.996C317.457 5.73467 316.865 5.604 316.09 5.604H312.744V4.47H315.74C316.449 4.47 317 4.33933 317.392 4.078C317.784 3.81667 317.98 3.42467 317.98 2.902C317.98 2.37933 317.784 1.98733 317.392 1.726C317 1.46467 316.449 1.334 315.74 1.334H312.87V8.866Z" fill="#04BE8C"/>
<path d="M270.852 147.112C270.105 147.112 269.415 146.991 268.78 146.748C268.155 146.496 267.609 146.146 267.142 145.698C266.685 145.241 266.325 144.709 266.064 144.102C265.803 143.495 265.672 142.828 265.672 142.1C265.672 141.372 265.803 140.705 266.064 140.098C266.325 139.491 266.689 138.964 267.156 138.516C267.623 138.059 268.169 137.709 268.794 137.466C269.429 137.214 270.119 137.088 270.866 137.088C271.622 137.088 272.317 137.219 272.952 137.48C273.596 137.732 274.142 138.11 274.59 138.614L273.68 139.496C273.307 139.104 272.887 138.815 272.42 138.628C271.953 138.432 271.454 138.334 270.922 138.334C270.371 138.334 269.858 138.427 269.382 138.614C268.915 138.801 268.509 139.062 268.164 139.398C267.819 139.734 267.548 140.135 267.352 140.602C267.165 141.059 267.072 141.559 267.072 142.1C267.072 142.641 267.165 143.145 267.352 143.612C267.548 144.069 267.819 144.466 268.164 144.802C268.509 145.138 268.915 145.399 269.382 145.586C269.858 145.773 270.371 145.866 270.922 145.866C271.454 145.866 271.953 145.773 272.42 145.586C272.887 145.39 273.307 145.091 273.68 144.69L274.59 145.572C274.142 146.076 273.596 146.459 272.952 146.72C272.317 146.981 271.617 147.112 270.852 147.112Z" fill="#E9B327"/>
<path d="M163.986 147L168.424 137.2H169.81L174.262 147H172.792L168.83 137.984H169.39L165.428 147H163.986ZM165.876 144.55L166.254 143.43H171.77L172.176 144.55H165.876Z" fill="#AC71F4"/>
<path d="M57.986 147L62.424 137.2H63.81L68.262 147H66.792L62.83 137.984H63.39L59.428 147H57.986ZM59.876 144.55L60.254 143.43H65.77L66.176 144.55H59.876Z" fill="#AC71F4"/>
</svg>
