<svg width="277" height="135" viewBox="0 0 277 135" fill="none" xmlns="http://www.w3.org/2000/svg">
<path d="M205 113V113C205 116.866 208.134 120 212 120H231C234.866 120 238 116.866 238 113V113" stroke="white" stroke-width="2" stroke-linecap="round"/>
<path d="M223.852 134.112C223.105 134.112 222.415 133.991 221.78 133.748C221.155 133.496 220.609 133.146 220.142 132.698C219.685 132.241 219.325 131.709 219.064 131.102C218.803 130.495 218.672 129.828 218.672 129.1C218.672 128.372 218.803 127.705 219.064 127.098C219.325 126.491 219.689 125.964 220.156 125.516C220.623 125.059 221.169 124.709 221.794 124.466C222.429 124.214 223.119 124.088 223.866 124.088C224.622 124.088 225.317 124.219 225.952 124.48C226.596 124.732 227.142 125.11 227.59 125.614L226.68 126.496C226.307 126.104 225.887 125.815 225.42 125.628C224.953 125.432 224.454 125.334 223.922 125.334C223.371 125.334 222.858 125.427 222.382 125.614C221.915 125.801 221.509 126.062 221.164 126.398C220.819 126.734 220.548 127.135 220.352 127.602C220.165 128.059 220.072 128.559 220.072 129.1C220.072 129.641 220.165 130.145 220.352 130.612C220.548 131.069 220.819 131.466 221.164 131.802C221.509 132.138 221.915 132.399 222.382 132.586C222.858 132.773 223.371 132.866 223.922 132.866C224.454 132.866 224.953 132.773 225.42 132.586C225.887 132.39 226.307 132.091 226.68 131.69L227.59 132.572C227.142 133.076 226.596 133.459 225.952 133.72C225.317 133.981 224.617 134.112 223.852 134.112Z" fill="#E9B327"/>
<path d="M52 113V113C52 116.866 55.134 120 59 120H78C81.866 120 85 116.866 85 113V113" stroke="white" stroke-width="2" stroke-linecap="round"/>
<path d="M125 113V113C125 116.866 128.134 120 132 120H158C161.866 120 165 116.866 165 113V113" stroke="white" stroke-width="2" stroke-linecap="round"/>
<path d="M63.986 134L68.424 124.2H69.81L74.262 134H72.792L68.83 124.984H69.39L65.428 134H63.986ZM65.876 131.55L66.254 130.43H71.77L72.176 131.55H65.876Z" fill="#AC71F4"/>
<path d="M139.986 134L144.424 124.2H145.81L150.262 134H148.792L144.83 124.984H145.39L141.428 134H139.986ZM141.876 131.55L142.254 130.43H147.77L148.176 131.55H141.876Z" fill="#AC71F4"/>
<path d="M48 21V21C48 16.5817 44.4183 13 40 13L23 13C18.5817 13 15 16.5817 15 21V21" stroke="white" stroke-width="2" stroke-linecap="round"/>
<path d="M119 21V21C119 16.5817 115.418 13 111 13L94 13C89.5817 13 86 16.5817 86 21V21" stroke="white" stroke-width="2" stroke-linecap="round"/>
<path d="M201 21V21C201 16.5817 197.418 13 193 13L176 13C171.582 13 168 16.5817 168 21V21" stroke="white" stroke-width="2" stroke-linecap="round"/>
<path d="M276 21V21C276 16.5817 272.418 13 268 13L251 13C246.582 13 243 16.5817 243 21V21" stroke="white" stroke-width="2" stroke-linecap="round"/>
<path d="M28.47 10V0.199999H32.866C33.9953 0.199999 34.8633 0.428666 35.47 0.886C36.0767 1.334 36.38 1.95 36.38 2.734C36.38 3.266 36.2587 3.714 36.016 4.078C35.7827 4.442 35.4653 4.722 35.064 4.918C34.6627 5.114 34.2287 5.212 33.762 5.212L34.014 4.792C34.574 4.792 35.0687 4.89 35.498 5.086C35.9273 5.282 36.268 5.57133 36.52 5.954C36.772 6.32733 36.898 6.794 36.898 7.354C36.898 8.194 36.5807 8.84733 35.946 9.314C35.3207 9.77133 34.3873 10 33.146 10H28.47ZM29.87 8.866H33.09C33.8647 8.866 34.4573 8.73533 34.868 8.474C35.2787 8.21267 35.484 7.802 35.484 7.242C35.484 6.67267 35.2787 6.25733 34.868 5.996C34.4573 5.73467 33.8647 5.604 33.09 5.604H29.744V4.47H32.74C33.4493 4.47 34 4.33933 34.392 4.078C34.784 3.81667 34.98 3.42467 34.98 2.902C34.98 2.37933 34.784 1.98733 34.392 1.726C34 1.46467 33.4493 1.334 32.74 1.334H29.87V8.866Z" fill="#04BE8C"/>
<path d="M99.47 10V0.199999H103.866C104.995 0.199999 105.863 0.428666 106.47 0.886C107.077 1.334 107.38 1.95 107.38 2.734C107.38 3.266 107.259 3.714 107.016 4.078C106.783 4.442 106.465 4.722 106.064 4.918C105.663 5.114 105.229 5.212 104.762 5.212L105.014 4.792C105.574 4.792 106.069 4.89 106.498 5.086C106.927 5.282 107.268 5.57133 107.52 5.954C107.772 6.32733 107.898 6.794 107.898 7.354C107.898 8.194 107.581 8.84733 106.946 9.314C106.321 9.77133 105.387 10 104.146 10H99.47ZM100.87 8.866H104.09C104.865 8.866 105.457 8.73533 105.868 8.474C106.279 8.21267 106.484 7.802 106.484 7.242C106.484 6.67267 106.279 6.25733 105.868 5.996C105.457 5.73467 104.865 5.604 104.09 5.604H100.744V4.47H103.74C104.449 4.47 105 4.33933 105.392 4.078C105.784 3.81667 105.98 3.42467 105.98 2.902C105.98 2.37933 105.784 1.98733 105.392 1.726C105 1.46467 104.449 1.334 103.74 1.334H100.87V8.866Z" fill="#04BE8C"/>
<path d="M180.47 10V0.199999H184.866C185.995 0.199999 186.863 0.428666 187.47 0.886C188.077 1.334 188.38 1.95 188.38 2.734C188.38 3.266 188.259 3.714 188.016 4.078C187.783 4.442 187.465 4.722 187.064 4.918C186.663 5.114 186.229 5.212 185.762 5.212L186.014 4.792C186.574 4.792 187.069 4.89 187.498 5.086C187.927 5.282 188.268 5.57133 188.52 5.954C188.772 6.32733 188.898 6.794 188.898 7.354C188.898 8.194 188.581 8.84733 187.946 9.314C187.321 9.77133 186.387 10 185.146 10H180.47ZM181.87 8.866H185.09C185.865 8.866 186.457 8.73533 186.868 8.474C187.279 8.21267 187.484 7.802 187.484 7.242C187.484 6.67267 187.279 6.25733 186.868 5.996C186.457 5.73467 185.865 5.604 185.09 5.604H181.744V4.47H184.74C185.449 4.47 186 4.33933 186.392 4.078C186.784 3.81667 186.98 3.42467 186.98 2.902C186.98 2.37933 186.784 1.98733 186.392 1.726C186 1.46467 185.449 1.334 184.74 1.334H181.87V8.866Z" fill="#04BE8C"/>
<path d="M256.47 10V0.199999H260.866C261.995 0.199999 262.863 0.428666 263.47 0.886C264.077 1.334 264.38 1.95 264.38 2.734C264.38 3.266 264.259 3.714 264.016 4.078C263.783 4.442 263.465 4.722 263.064 4.918C262.663 5.114 262.229 5.212 261.762 5.212L262.014 4.792C262.574 4.792 263.069 4.89 263.498 5.086C263.927 5.282 264.268 5.57133 264.52 5.954C264.772 6.32733 264.898 6.794 264.898 7.354C264.898 8.194 264.581 8.84733 263.946 9.314C263.321 9.77133 262.387 10 261.146 10H256.47ZM257.87 8.866H261.09C261.865 8.866 262.457 8.73533 262.868 8.474C263.279 8.21267 263.484 7.802 263.484 7.242C263.484 6.67267 263.279 6.25733 262.868 5.996C262.457 5.73467 261.865 5.604 261.09 5.604H257.744V4.47H260.74C261.449 4.47 262 4.33933 262.392 4.078C262.784 3.81667 262.98 3.42467 262.98 2.902C262.98 2.37933 262.784 1.98733 262.392 1.726C262 1.46467 261.449 1.334 260.74 1.334H257.87V8.866Z" fill="#04BE8C"/>
<rect y="61" width="5" height="16" rx="2.5" fill="#FF365E"/>
<rect x="7.58325" y="53" width="5" height="32" rx="2.5" fill="#FF365E"/>
<rect x="52.4443" y="45" width="5" height="43" rx="2.5" fill="#AC71F4"/>
<rect x="61.3054" y="35" width="5" height="63" rx="2.5" fill="#AC71F4"/>
<rect x="69.8887" y="45" width="6" height="40" rx="3" fill="#AC71F4"/>
<rect x="79.75" y="31.5" width="5" height="67" rx="2.5" fill="#AC71F4"/>
<rect x="88.6111" y="27" width="5" height="76" rx="2.5" fill="#04BE8C"/>
<rect x="16" y="29" width="5" height="76" rx="2.5" fill="#04BE8C"/>
<rect x="97.4722" y="31" width="5" height="68" rx="2.5" fill="#04BE8C"/>
<rect x="24.8611" y="33" width="5" height="68" rx="2.5" fill="#04BE8C"/>
<rect x="106.194" y="27" width="6" height="76" rx="3" fill="#04BE8C"/>
<rect x="33.5835" y="29" width="6" height="76" rx="3" fill="#04BE8C"/>
<rect x="116.056" y="38" width="5" height="54" rx="2.5" fill="#04BE8C"/>
<rect x="43.4443" y="40" width="5" height="54" rx="2.5" fill="#04BE8C"/>
<rect x="124.917" y="43" width="5" height="44" rx="2.5" fill="#AC71F4"/>
<rect x="133.778" y="35" width="5" height="60" rx="2.5" fill="#AC71F4"/>
<rect x="142.639" y="45" width="5" height="40" rx="2.5" fill="#AC71F4"/>
<rect x="151" y="29" width="5" height="72" rx="2.5" fill="#AC71F4"/>
<rect x="159.861" y="39" width="5" height="52" rx="2.5" fill="#AC71F4"/>
<rect x="168.722" y="27" width="5" height="76" rx="2.5" fill="#04BE8C"/>
<rect x="177.583" y="31" width="6" height="68" rx="3" fill="#04BE8C"/>
<rect x="187" y="27" width="5" height="76" rx="2.5" fill="#04BE8C"/>
<rect x="195.861" y="38" width="5" height="54" rx="2.5" fill="#04BE8C"/>
<rect x="204.722" y="47" width="5" height="36" rx="2.5" fill="#E9B327"/>
<rect x="213.583" y="42" width="6" height="46" rx="3" fill="#E9B327"/>
<rect x="223.444" y="48" width="6" height="34" rx="3" fill="#E9B327"/>
<rect x="233.694" y="37" width="5" height="56" rx="2.5" fill="#E9B327"/>
<rect x="242.555" y="27" width="5" height="76" rx="2.5" fill="#04BE8C"/>
<rect x="251.417" y="31" width="5" height="68" rx="2.5" fill="#04BE8C"/>
<rect x="260.694" y="27" width="6" height="76" rx="3" fill="#04BE8C"/>
<rect x="270.555" y="38" width="5" height="54" rx="2.5" fill="#04BE8C"/>
</svg>
