<svg width="290" height="98" viewBox="0 0 290 98" fill="none" xmlns="http://www.w3.org/2000/svg">
<rect y="42.5" width="5" height="16" rx="2.5" fill="#FF365E"/>
<rect x="7.58325" y="34.5" width="5" height="32" rx="2.5" fill="#FF365E"/>
<rect x="16.4443" y="29" width="5" height="43" rx="2.5" fill="#04BE8C"/>
<rect x="25.3054" y="19" width="5" height="63" rx="2.5" fill="#04BE8C"/>
<rect x="34.0276" y="19.5" width="6" height="59" rx="3" fill="#04BE8C"/>
<rect x="43.8887" y="29" width="6" height="40" rx="3" fill="#04BE8C"/>
<rect x="53.7499" y="15.5" width="5" height="67" rx="2.5" fill="#04BE8C"/>
<rect x="62.6111" y="11" width="5" height="76" rx="2.5" fill="#04BE8C"/>
<rect x="71.4722" y="15" width="5" height="68" rx="2.5" fill="#04BE8C"/>
<rect x="80.3334" width="6" height="98" rx="3" fill="#04BE8C"/>
<rect x="90.1945" y="11" width="6" height="76" rx="3" fill="#04BE8C"/>
<rect x="100.056" y="22" width="5" height="54" rx="2.5" fill="#04BE8C"/>
<rect x="108.917" y="27" width="5" height="44" rx="2.5" fill="#04BE8C"/>
<rect x="117.778" y="19" width="5" height="60" rx="2.5" fill="#04BE8C"/>
<rect x="126.639" y="29" width="5" height="40" rx="2.5" fill="#04BE8C"/>
<rect x="135.5" y="20" width="6" height="58" rx="3" fill="#04BE8C"/>
<rect x="145" y="13" width="5" height="72" rx="2.5" fill="#04BE8C"/>
<rect x="153.861" y="23" width="5" height="52" rx="2.5" fill="#04BE8C"/>
<rect x="162.722" y="11" width="5" height="76" rx="2.5" fill="#04BE8C"/>
<rect x="171.583" y="15" width="6" height="68" rx="3" fill="#04BE8C"/>
<rect x="181.445" width="6" height="98" rx="3" fill="#04BE8C"/>
<rect x="191.306" y="11" width="5" height="76" rx="2.5" fill="#04BE8C"/>
<rect x="200.167" y="22" width="5" height="54" rx="2.5" fill="#04BE8C"/>
<rect x="209.028" y="31" width="5" height="36" rx="2.5" fill="#04BE8C"/>
<rect x="217.889" y="26" width="6" height="46" rx="3" fill="#04BE8C"/>
<rect x="227.75" y="32" width="6" height="34" rx="3" fill="#04BE8C"/>
<rect x="238" y="21" width="5" height="56" rx="2.5" fill="#04BE8C"/>
<rect x="246.861" y="11" width="5" height="76" rx="2.5" fill="#04BE8C"/>
<rect x="255.722" y="15" width="5" height="68" rx="2.5" fill="#04BE8C"/>
<rect x="264.583" width="6" height="98" rx="3" fill="#04BE8C"/>
<rect x="274.444" y="11" width="6" height="76" rx="3" fill="#04BE8C"/>
<rect x="284.306" y="22" width="5" height="54" rx="2.5" fill="#04BE8C"/>
</svg>
